<svg xmlns="http://www.w3.org/2000/svg" width="50" height="50" viewBox="0 0 50 50">
  <g id="MDI_account-group-outline" data-name="MDI / account-group-outline" opacity="0.77">
    <g id="Boundary" fill="#555" stroke="rgba(0,0,0,0)" stroke-width="1" opacity="0">
      <rect width="50" height="50" stroke="none"/>
      <rect x="0.5" y="0.5" width="49" height="49" fill="none"/>
    </g>
    <path id="Path_account-group-outline" data-name="Path / account-group-outline" d="M24.854,5A7.249,7.249,0,1,0,32.1,12.249,7.249,7.249,0,0,0,24.854,5m0,4.142a3.107,3.107,0,1,1-3.107,3.107,3.107,3.107,0,0,1,3.107-3.107M11.391,11.213A5.178,5.178,0,1,0,13.9,20.906a5.413,5.413,0,0,0,1.885-1.8,11.225,11.225,0,0,1-2.32-6.856v-.58a4.894,4.894,0,0,0-2.071-.456m26.925,0a4.893,4.893,0,0,0-2.071.456v.58a11.225,11.225,0,0,1-2.32,6.856,5.709,5.709,0,0,0,.828,1.015,4.836,4.836,0,0,0,1.056.787,5.069,5.069,0,0,0,5.012,0,5.168,5.168,0,0,0-2.506-9.693M24.854,23.64c-4.846,0-14.5,2.423-14.5,7.249V34h29V30.889c0-4.826-9.652-7.249-14.5-7.249m-15.1,1.139C5.758,25.256,0,27.286,0,30.889V34H6.213V30c0-2.092,1.429-3.832,3.542-5.219m30.2,0c2.113,1.388,3.542,3.127,3.542,5.219v4h6.213V30.889c0-3.6-5.758-5.634-9.755-6.11m-15.1,3a21.486,21.486,0,0,1,8.761,2.071H16.093A21.486,21.486,0,0,1,24.854,27.783Z" transform="translate(0.292 5.502)" fill="#555"/>
  </g>
</svg>
