<svg xmlns="http://www.w3.org/2000/svg" width="72" height="72" viewBox="0 0 72 72">
  <g id="MDI_head-lightbulb-outline" data-name="MDI / head-lightbulb-outline" transform="translate(0.185 0.185)">
    <rect id="Boundary" width="72" height="72" transform="translate(-0.185 -0.185)" fill="#fff" opacity="0"/>
    <path id="Path_head-lightbulb-outline" data-name="Path / head-lightbulb-outline" d="M34.739,6.96A20.733,20.733,0,0,1,55.6,27.821,20.472,20.472,0,0,1,43.68,46.6V60.6H22.819v-8.94h-2.98a5.978,5.978,0,0,1-5.96-5.96v-8.94H9.408c-1.192,0-2.086-1.49-1.192-2.384l5.662-7.45A20.743,20.743,0,0,1,34.739,6.96m0-5.96A26.512,26.512,0,0,0,8.216,24.543L3.448,30.8a7.425,7.425,0,0,0,4.47,11.623V45.7a12.155,12.155,0,0,0,8.94,11.623v9.238H49.64V50.172A26.854,26.854,0,0,0,34.739,1m2.98,38.742h-5.96v-2.98h5.96v2.98m4.768-13.411a11.438,11.438,0,0,1-3.278,3.278v4.172h-8.94V29.609a9.124,9.124,0,0,1-3.278-12.219,8.945,8.945,0,0,1,15.5,8.94Z" transform="translate(3.939 1.98)" fill="#fff"/>
  </g>
</svg>
