<svg xmlns="http://www.w3.org/2000/svg" width="24" height="24" viewBox="0 0 24 24">
  <g id="MDI_account-edit" data-name="MDI / account-edit" transform="translate(0.5 0.067)">
    <g id="Boundary" transform="translate(-0.5 -0.067)" fill="#555" stroke="rgba(0,0,0,0)" stroke-width="1" opacity="0">
      <rect width="24" height="24" stroke="none"/>
      <rect x="0.5" y="0.5" width="23" height="23" fill="none"/>
    </g>
    <path id="Path_account-edit" data-name="Path / account-edit" d="M21.7,13.35l-1,1L18.65,12.3l1-1a.549.549,0,0,1,.77,0l1.28,1.28a.549.549,0,0,1,0,.77M12,18.94l6.06-6.06,2.05,2.05L14.06,21H12V18.94M12,14c-4.42,0-8,1.79-8,4v2h6V18.11l4-4A16.643,16.643,0,0,0,12,14M12,4a4,4,0,1,0,4,4,4,4,0,0,0-4-4Z" transform="translate(-0.5 -0.067)" fill="#555"/>
  </g>
</svg>
